<?xml version="1.0" encoding="utf-8"?>
<!-- Generator: Adobe Illustrator 19.0.1, SVG Export Plug-In . SVG Version: 6.00 Build 0)  -->
<svg version="1.1" id="Слой_1" xmlns="http://www.w3.org/2000/svg" xmlns:xlink="http://www.w3.org/1999/xlink" x="0px" y="0px"
	 viewBox="0 0 333.1 204.3" style="enable-background:new 0 0 333.1 204.3;" xml:space="preserve">
<style type="text/css">
	.st0{fill:#0583AF;}
	.st1{fill:#18B799;}
	.st2{fill:#223F7F;}
</style>
<path class="st0" d="M155.9,115.5C142.5,138,118,152,92,152S41.4,138,28,115.5l-0.1-0.2h-4l0.4,0.6c13.8,24.4,39.7,39.5,67.7,39.5
	s53.8-15.1,67.7-39.5l0.4-0.6h-4L155.9,115.5z"/>
<path class="st1" d="M92,0C64.1,0,38.1,15.1,24.3,39.5l-0.4,0.6h4L28,40C41.4,17.4,65.9,3.4,92,3.4c26.1,0,50.6,14,63.9,36.5
	l0.1,0.2h4l-0.4-0.6C145.8,15.1,119.9,0,92,0"/>
<path class="st0" d="M307.9,115.5C294.6,138,270.1,152,244,152c-26.1,0-50.6-14-63.9-36.5l-0.1-0.2h-4l0.4,0.6
	c13.8,24.4,39.7,39.5,67.7,39.5c27.9,0,53.8-15.1,67.7-39.5l0.4-0.6h-4L307.9,115.5z"/>
<path class="st1" d="M180.1,40C193.4,17.4,217.9,3.4,244,3.4c26.1,0,50.6,14,63.9,36.5l0.1,0.2h4l-0.4-0.6C297.8,15.1,271.9,0,244,0
	c-27.9,0-53.8,15.1-67.7,39.5l-0.4,0.6h4L180.1,40z"/>
<path class="st2" d="M0,77.5c0-8.8,6.7-16.2,16.1-16.2c5.4,0,8.8,1.5,12,4.2l-3.5,4.2c-2.4-2.1-4.8-3.3-8.8-3.3
	c-5.8,0-10.1,5-10.1,11.1c0,6.4,4.2,11.2,10.6,11.2c2.9,0,5.6-0.9,7.5-2.4v-5.9h-8v-4.8h13.3v13.1c-3.1,2.6-7.5,4.9-13,4.9
	C6.4,93.7,0,86.7,0,77.5"/>
<polygon class="st2" points="156.4,61.9 179.6,61.9 179.6,66.9 161.8,66.9 161.8,75.4 177.6,75.4 177.6,80.4 161.8,80.4 161.8,93.1 
	156.4,93.1 "/>
<polygon class="st2" points="305.9,61.9 311,61.9 327.7,83.5 327.7,61.9 333.1,61.9 333.1,93.1 328.5,93.1 311.3,70.9 311.3,93.1 
	305.9,93.1 "/>
<path class="st2" d="M15.5,198c0-3.3,2.4-6.3,6.1-6.3c2,0,3.3,0.6,4.5,1.6l-0.9,1c-0.9-0.8-2-1.4-3.7-1.4c-2.7,0-4.6,2.3-4.6,5
	c0,2.9,1.9,5.1,4.8,5.1c1.4,0,2.7-0.5,3.5-1.2v-3h-3.7v-1.2h5v4.8c-1.1,1-2.8,1.9-4.9,1.9C17.9,204.3,15.5,201.5,15.5,198"/>
<polygon class="st2" points="30.8,191.9 32.1,191.9 32.1,202.8 39,202.8 39,204.1 30.8,204.1 "/>
<path class="st2" d="M39.9,198c0-3.4,2.5-6.3,6.2-6.3c3.7,0,6.2,2.9,6.2,6.3c0,3.4-2.5,6.3-6.2,6.3C42.3,204.3,39.9,201.4,39.9,198
	 M50.8,198c0-2.8-2-5-4.8-5c-2.8,0-4.8,2.2-4.8,5c0,2.8,2,5,4.8,5C48.9,203,50.8,200.8,50.8,198"/>
<path class="st2" d="M55.8,191.9h5.2c1.4,0,2.5,0.4,3.2,1.1c0.5,0.5,0.8,1.2,0.8,2c0,1.6-1,2.4-1.9,2.8c1.4,0.4,2.6,1.3,2.6,3
	c0,2.1-1.8,3.3-4.4,3.3h-5.4V191.9z M60.7,197.4c1.7,0,2.8-0.7,2.8-2.2c0-1.2-1-2-2.7-2h-3.7v4.2H60.7z M61.2,202.9
	c1.8,0,3-0.8,3-2.2c0-1.3-1.1-2.1-3.2-2.1h-3.8v4.3H61.2z"/>
<path class="st2" d="M73.4,191.8h1.3l5.5,12.2h-1.5l-1.4-3.2h-6.6l-1.4,3.2h-1.4L73.4,191.8z M76.8,199.7l-2.8-6.2l-2.8,6.2H76.8z"
	/>
<polygon class="st2" points="83.2,191.9 84.6,191.9 84.6,202.8 91.5,202.8 91.5,204.1 83.2,204.1 "/>
<polygon class="st2" points="101.2,191.9 110,191.9 110,193.2 102.6,193.2 102.6,197.5 109.2,197.5 109.2,198.8 102.6,198.8 
	102.6,204.1 101.2,204.1 "/>
<path class="st2" d="M116.6,191.8h1.3l5.5,12.2h-1.5l-1.4-3.2h-6.6l-1.4,3.2H111L116.6,191.8z M119.9,199.7l-2.8-6.2l-2.8,6.2H119.9
	z"/>
<path class="st2" d="M125.1,198c0-3.4,2.6-6.3,6.2-6.3c2.2,0,3.5,0.8,4.7,2l-0.9,1c-1-1-2.2-1.7-3.8-1.7c-2.7,0-4.7,2.2-4.7,5
	c0,2.8,2,5,4.7,5c1.7,0,2.8-0.6,3.9-1.8l0.9,1c-1.3,1.3-2.7,2.1-4.9,2.1C127.7,204.3,125.1,201.5,125.1,198"/>
<polygon class="st2" points="142.3,193.2 138.2,193.2 138.2,191.9 147.8,191.9 147.8,193.2 143.7,193.2 143.7,204.1 142.3,204.1 "/>
<path class="st2" d="M149.6,198c0-3.4,2.5-6.3,6.2-6.3c3.7,0,6.2,2.9,6.2,6.3c0,3.4-2.5,6.3-6.2,6.3
	C152.1,204.3,149.6,201.4,149.6,198 M160.6,198c0-2.8-2-5-4.8-5c-2.8,0-4.8,2.2-4.8,5c0,2.8,2,5,4.8,5
	C158.6,203,160.6,200.8,160.6,198"/>
<path class="st2" d="M165.5,191.9h5.2c1.5,0,2.7,0.5,3.5,1.2c0.6,0.6,0.9,1.4,0.9,2.4c0,2-1.4,3.2-3.3,3.5l3.7,5h-1.7l-3.5-4.7h-3.5
	v4.7h-1.4V191.9z M170.6,198.1c1.8,0,3.1-0.9,3.1-2.5c0-1.5-1.1-2.4-3.1-2.4h-3.8v4.9H170.6z"/>
<rect x="180.2" y="191.9" class="st2" width="1.4" height="12.2"/>
<polygon class="st2" points="186.9,191.9 188.2,191.9 195.9,201.7 195.9,191.9 197.2,191.9 197.2,204.1 196.1,204.1 188.3,194.1 
	188.3,204.1 186.9,204.1 "/>
<path class="st2" d="M200.7,198c0-3.3,2.4-6.3,6.1-6.3c2.1,0,3.3,0.6,4.5,1.6l-0.9,1c-0.9-0.8-2-1.4-3.7-1.4c-2.7,0-4.6,2.3-4.6,5
	c0,2.9,1.9,5.1,4.8,5.1c1.4,0,2.7-0.5,3.5-1.2v-3h-3.7v-1.2h5v4.8c-1.1,1-2.8,1.9-4.9,1.9C203.1,204.3,200.7,201.5,200.7,198"/>
<polygon class="st2" points="222.6,191.9 223.9,191.9 231.6,201.7 231.6,191.9 232.9,191.9 232.9,204.1 231.8,204.1 224,194.1 
	224,204.1 222.6,204.1 "/>
<polygon class="st2" points="237.8,191.9 246.5,191.9 246.5,193.2 239.1,193.2 239.1,197.3 245.8,197.3 245.8,198.6 239.1,198.6 
	239.1,202.8 246.6,202.8 246.6,204.1 237.8,204.1 "/>
<polygon class="st2" points="253.5,193.2 249.4,193.2 249.4,191.9 259,191.9 259,193.2 254.9,193.2 254.9,204.1 253.5,204.1 "/>
<polygon class="st2" points="260.9,191.9 262.4,191.9 265.9,202.1 269.2,191.9 270.4,191.9 273.7,202.1 277.2,191.9 278.6,191.9 
	274.3,204.2 273.1,204.2 269.8,194.3 266.4,204.2 265.3,204.2 "/>
<path class="st2" d="M280.5,198c0-3.4,2.5-6.3,6.2-6.3c3.7,0,6.2,2.9,6.2,6.3c0,3.4-2.5,6.3-6.2,6.3
	C283,204.3,280.5,201.4,280.5,198 M291.5,198c0-2.8-2-5-4.8-5c-2.8,0-4.8,2.2-4.8,5c0,2.8,2,5,4.8,5
	C289.5,203,291.5,200.8,291.5,198"/>
<path class="st2" d="M296.1,191.9h5.2c1.5,0,2.7,0.5,3.5,1.2c0.6,0.6,0.9,1.4,0.9,2.4c0,2-1.4,3.2-3.3,3.5l3.7,5h-1.7l-3.5-4.7h-3.5
	v4.7h-1.4V191.9z M301.2,198.1c1.8,0,3.1-0.9,3.1-2.5c0-1.5-1.1-2.4-3.1-2.4h-3.8v4.9H301.2z"/>
<polygon class="st2" points="309.8,191.9 311.1,191.9 311.1,199.2 318.1,191.9 319.9,191.9 314.7,197.3 320.1,204.1 318.4,204.1 
	313.7,198.2 311.1,200.8 311.1,204.1 309.8,204.1 "/>
</svg>
